<?xml version="1.0" standalone="no"?>
<!DOCTYPE svg PUBLIC "-//W3C//DTD SVG 1.1//EN" "http://www.w3.org/Graphics/SVG/1.1/DTD/svg11.dtd">
<svg xmlns="http://www.w3.org/2000/svg">
<metadata>Generated by Fontastic.me</metadata>
<defs>
<font id="apiconnect-icons" horiz-adv-x="512">
<font-face font-family="apiconnect-icons" units-per-em="512" ascent="480" descent="-32"/>
<missing-glyph horiz-adv-x="512" />

<glyph unicode="&#97;" d="M471 461c4 0 8-2 11-5 3-3 4-6 4-11 0 0 0-61 0-61 0 0-460 0-460 0 0 0 0 61 0 61 0 5 1 8 4 11 3 3 7 5 11 5 0 0 430 0 430 0m-420-374c0 0 0 271 0 271 0 0 410 0 410 0 0 0 0-271 0-271 0-10-4-19-11-26-7-6-15-10-25-10 0 0-338 0-338 0-10 0-18 4-25 10-7 7-11 16-11 26m128 220c0 0 0-51 0-51 0 0 154 0 154 0 0 0 0 51 0 51 0 0-154 0-154 0"/>
<glyph unicode="&#98;" d="M489 242c-28 8-35 75-12 88 8 5 14 11 18 18-6 23-27 55-39 69-8 0-17-2-25-6-26-15-78 24-70 54 2 9 1 20-1 27-15 7-49 17-75 20-5-4-12-14-14-23-8-31-74-36-89-11-4 8-13 16-19 18-17-5-53-26-67-38 1-8 1-18 6-27 14-24-24-79-54-71-10 3-21 2-29-1-7-16-18-57-19-73 2-5 14-13 24-15 41-11 41-72 11-89-8-5-15-12-18-20 5-16 25-51 38-66 8-1 18 1 27 6 26 15 80-21 71-55-3-9-2-18 0-27 20-8 56-20 76-20 7 6 11 15 13 23 8 30 73 39 89 12 4-7 10-14 17-18 21 6 58 27 70 40 1 9-3 17-7 25-17 29 22 79 54 70 9-2 18-1 26 1 7 17 19 49 21 75-7 8-14 12-23 14z m-97-19c-20-73-95-116-167-97-73 20-116 94-97 167 20 73 95 116 167 97 73-20 116-95 97-167z"/>
<glyph unicode="&#99;" d="M281 160c24-12 36-31 36-58 0-17-6-31-17-43-12-12-27-18-44-18-17 0-32 6-44 18-11 12-17 26-17 43 0 27 12 46 36 58 0 0 0 193 0 193-24 12-36 31-36 57 0 17 6 31 17 43 12 12 27 18 44 18 17 0 32-6 44-18 11-12 17-26 17-43 0-26-12-45-36-57 0 0 0-193 0-193m-60 250c0-10 4-18 10-25 7-7 15-10 25-10 10 0 18 3 25 10 7 7 11 15 11 25 0 10-4 18-11 25-7 7-15 10-25 10-10 0-18-3-25-10-6-7-10-15-10-25m35-342c10 0 18 3 25 10 7 7 11 15 11 24 0 11-4 19-11 26-7 7-15 10-25 10-10 0-18-3-25-10-6-7-10-15-10-26 0-9 4-17 10-24 7-7 15-10 25-10"/>
<glyph unicode="&#100;" d="M259 147l70 70c6 5 6 15 0 21-6 6-16 6-22 0l-69-70-70 70 70 69c6 6 6 16 0 22-6 6-16 6-21 0l-70-70-24 24-43-42c-39-39-43-99-14-143l-66-66 32-32 66 66c44-29 104-25 143 14l42 43z m130 82l43 42c39 39 43 99 14 143l66 66-32 32-66-66c-44 29-104 25-143-14l-42-43c157-157 1-1 160-160z"/>
<glyph unicode="&#101;" d="M318 87c0 14-1 37-1 46-5 16-21 18-35 25-15 7-31 15-46 22-5 1-9 2-13 3-5 4-10 17-13 24l-4 1-11-1c7 6 17 12 21 19l6 35 3 0c4 0 8 1 8 8l1 35c0 3-3 6-6 8-1 0-1 0-2 0 1 12 1 22 1 30 0 1 0 3 0 4 0 16-15 46-54 50-25 2-50-11-52-26-1 0-3 0-5-1-6-2-12-11-13-27-1-17 0-26 2-30 0 0-1 0-1 0-4-2-7-5-7-8l1-35c0-7 4-8 8-8l3 0 6-36c4-7 17-14 24-21l-12-1c-3-7-8-16-12-20-4-1-8-2-13-3-15-7-31-15-46-22-14-7-30-9-35-25 0-9-1-32-1-46z m-26 181c0 0 0 0 1 0l3-22 4-19c3-6 14-12 21-17l-6 0-4-3c-3-6-8-20-13-24-4-1-8-2-12-4 4-2 9-4 13-6 15-8 34-11 39-29 0-12 1-40 1-57l161 0c0 14 0 36 0 46-5 16-22 18-35 24-15 7-32 15-47 22-4 1-9 2-13 4-5 4-10 16-13 23-2 0-3 1-8 1 0 0 0 3 0 3l-5 0c7 5 18 11 21 18l7 34 0 0 1 6c0 0 0 0 0 0 6-1 12 9 14 21 2 13-1 24-7 25-1 1-3 0-4-1 1 12 1 21 0 29 0 2 0 3 0 5 1 7 8 28 1 33-1 1-5 0-7 0-13-1-28 15-48 17-24 2-49-11-51-26-2 0-3-1-5-1-6-2-12-11-13-27-1-18 0-26 2-30 0 0-1 0-1 0-1 1-3 2-4 1-6-1-9-12-7-25 2-12 8-22 14-21z"/>
<glyph unicode="&#103;" d="M285 256l76 76c8 8 8 21 0 29-8 8-21 8-29 0l-76-76-76 76c-8 8-21 8-29 0-8-8-8-21 0-29l76-76-76-76c-8-8-8-21 0-29 4-4 9-6 14-6 6 0 11 2 15 6l76 76 76-76c4-4 9-6 15-6 5 0 10 2 14 6 8 8 8 21 0 29z"/>
<glyph unicode="&#103;" d="M90 357l0 0c0-6 5-12 11-12l0 0 310 0 0 0c6 0 11 6 11 12l0 0 0 54c0 6-5 11-11 11l-310 0c-6 0-11-5-11-11 0-1 0-1 0-1z m321-63l-310 0c-6 0-11-5-11-11 0 0 0-1 0-1l0-53 0 0c0-6 5-11 11-11l0 0 310 0 0 0c6 0 11 5 11 11l0 0 0 54c0 6-5 11-11 11z m0-127l-310 0c-6 0-11-6-11-12 0 0 0 0 0-1l0-53 0 0c0-6 5-11 11-11l0 0 310 0 0 0c6 0 11 5 11 11l0 0 0 54c0 6-5 12-11 12z"/>
<glyph unicode="&#106;" d="M285 256l76 76c8 8 8 21 0 29-8 8-21 8-29 0l-76-76-76 76c-8 8-21 8-29 0-8-8-8-21 0-29l76-76-76-76c-8-8-8-21 0-29 4-4 9-6 14-6 6 0 11 2 15 6l76 76 76-76c4-4 9-6 15-6 5 0 10 2 14 6 8 8 8 21 0 29z"/>
<glyph unicode="&#104;" d="M285 256l76 76c8 8 8 21 0 29-8 8-21 8-29 0l-76-76-76 76c-8 8-21 8-29 0-8-8-8-21 0-29l76-76-76-76c-8-8-8-21 0-29 4-4 9-6 14-6 6 0 11 2 15 6l76 76 76-76c4-4 9-6 15-6 5 0 10 2 14 6 8 8 8 21 0 29z"/>
<glyph unicode="&#105;" d="M424 425c11-11 19-22 24-33 5-11 8-19 8-24 0 0 0-9 0-9 0 0-129-129-129-129 0 0-149-147-149-147 0 0-122-27-122-27 0 0 26 123 26 123 0 0 148 148 148 148 0 0 129 129 129 129 19 4 40-6 65-31m-253-328c0 0 12 13 12 13 0 15-9 31-26 48-8 7-16 13-23 18-8 4-14 6-18 6 0 0-7 1-7 1 0 0-12-12-12-12 0 0-9-41-9-41 10-5 17-11 24-17 8-9 14-17 18-25 0 0 41 9 41 9"/>
<glyph unicode="&#104;" d="M424 425c11-11 19-22 24-33 5-11 8-19 8-24 0 0 0-9 0-9 0 0-129-129-129-129 0 0-149-147-149-147 0 0-122-27-122-27 0 0 26 123 26 123 0 0 148 148 148 148 0 0 129 129 129 129 19 4 40-6 65-31m-253-328c0 0 12 13 12 13 0 15-9 31-26 48-8 7-16 13-23 18-8 4-14 6-18 6 0 0-7 1-7 1 0 0-12-12-12-12 0 0-9-41-9-41 10-5 17-11 24-17 8-9 14-17 18-25 0 0 41 9 41 9"/>
<glyph unicode="&#105;" d="M367 176c6-6 9-13 9-22 0-8-3-16-9-22-6-5-13-8-22-8-8 0-16 3-22 8 0 0-68 78-68 78 0 0-67-78-67-78-6-5-14-8-22-8-9 0-16 3-22 8-6 6-8 14-8 22 0 9 2 16 8 22 0 0 71 80 71 80 0 0-71 81-71 81-6 6-8 13-8 22 0 8 2 16 8 22 6 5 13 8 22 8 8 0 16-3 22-8 0 0 67-78 67-78 0 0 68 78 68 78 6 5 14 8 22 8 9 0 16-3 22-8 6-6 9-14 9-22 0-9-3-16-9-22 0 0-71-81-71-81 0 0 71-80 71-80"/>
<glyph unicode="&#107;" d="M435 486c8 0 14-2 19-7 4-5 7-11 7-18 0 0 0-435 0-435 0 0-103 0-103 0 0 0 0 435 0 435 0 17 7 25 21 25 0 0 56 0 56 0m-153-153c7 0 13-3 18-8 5-5 7-11 7-18 0 0 0-281 0-281 0 0-102 0-102 0 0 0 0 281 0 281 0 17 7 26 20 26 0 0 57 0 57 0m-154-154c8 0 14-2 18-7 5-6 8-12 8-18 0 0 0-128 0-128 0 0-103 0-103 0 0 0 0 128 0 128 0 17 7 25 21 25 0 0 56 0 56 0"/>
<glyph unicode="&#110;" d="M256 464c-127 0-230-103-230-230 0-77 37-144 94-186 19 57 73 98 136 98 63 0 117-41 136-98 57 42 94 109 94 186 0 127-103 230-230 230z m0-285c-48 0-88 39-88 88 0 48 40 88 88 88 48 0 88-40 88-88 0-49-40-88-88-88z"/>
<glyph unicode="&#111;" d="M129 351c-32 0-42-32-24-50l130-132c12-12 31-12 43 0l130 130c16 16 9 52-23 52-34 0-231 0-256 0z"/>
<glyph unicode="&#110;" d="M32 160l64 0 0 32-32 0 0 128 32 0 0 32-64 0z m192 256l0-320 256 0 0 320z m192-256l-128 0 0 192 128 0z m-288-32l64 0 0 32-32 0 0 192 32 0 0 32-64 0z"/>
<glyph unicode="&#111;" d="M155 422l-54 0c-6 0-11-5-11-11l0-54c0-6 5-12 11-12l54 0c6 0 12 6 12 12l0 54c0 6-6 11-12 11z m128 0l-54 0c-6 0-11-5-11-11l0-54c0-6 5-12 11-12l54 0c6 0 11 6 11 12l0 54c0 6-5 11-11 11z m139-11c0 6-5 11-11 11l-54 0c-6 0-12-5-12-11l0-54c0 0 0 0 0 0 0-6 6-12 12-12l54 0c6 0 11 6 11 12l0 54z m-267-117l-54 0c-6 0-11-5-11-11l0-54c0-6 5-11 11-11l54 0c6 0 12 5 12 11l0 54c0 6-6 11-12 11z m128 0l-54 0c-6 0-11-5-11-11l0-54c0-6 5-11 11-11l54 0c6 0 11 5 11 11l0 54c0 6-5 11-11 11z m128 0l-54 0c-6 0-12-5-12-11l0-54c0 0 0 0 0 0 0-6 6-11 12-11l54 0c6 0 11 5 11 11l0 54c0 6-5 11-11 11z m-256-127l-54 0c-6 0-11-6-11-12l0-54c0-6 5-11 11-11l54 0c6 0 12 5 12 11l0 54c0 6-6 12-12 12z m128 0l-54 0c-6 0-11-6-11-12l0-54c0-6 5-11 11-11l54 0c6 0 11 5 11 11l0 54c0 6-5 12-11 12z m128 0l-54 0c-6 0-12-6-12-12l0-54c0-6 6-11 12-11l54 0c6 0 11 5 11 11l0 54c0 6-5 12-11 12z"/>
<glyph unicode="&#112;" d="M256 404c25 0 49-6 70-18-1 4-1 7-1 11 0 2 0 5 1 8-21 10-45 16-70 16-25 0-49-6-70-16 1-3 1-6 1-8 0-4 0-8-1-11 21 12 45 18 70 18z m142-142c0 0 0 0 0 0 0-54-30-100-74-125 4-4 8-8 11-12 48 27 80 78 80 137 0 0 0 0 0 0z m-210-125c-44 25-74 71-74 125 0 0 0 0 0 0l-17 0c0 0 0 0 0 0 0-59 32-110 80-137 3 4 7 8 11 12z m281 150c0 32-21 59-50 70 12 9 20 23 20 40 0 27-22 49-49 49-27 0-50-22-50-49 0-17 8-31 20-40-29-11-50-39-50-72 0-4 4-7 8-7l144 0c0 0 0 0 0 0 4 0 7 3 7 7 0 1 0 1 0 2z m-113 110c0 19 15 34 34 34 19 0 34-15 34-34 0-19-15-34-34-34-19 0-34 15-34 34z m-30-104c4 31 31 54 64 54 32 0 59-23 63-54z m-132-15c4 0 8 3 8 7 0 1-1 1-1 2 0 32-21 59-50 70 13 9 21 23 21 40 0 27-23 49-50 49-27 0-49-22-49-49 0-17 7-31 20-40-30-11-50-39-50-72 0-4 3-7 7-7l144 0c0 0 0 0 0 0z m-106 119c0 19 15 34 34 34 19 0 34-15 34-34 0-19-15-34-34-34-19 0-34 15-34 34z m-29-104c3 31 30 54 63 54 33 0 60-23 64-54z m226-148c13 9 20 23 20 40 0 27-22 49-49 49-27 0-50-22-50-49 0-17 8-31 21-40-30-11-50-39-50-72 0-4 3-7 7-7l144 0c0 0 0 0 0 0 4 0 7 3 7 7 0 1 0 1 0 2 0 32-21 59-50 70z m-63 40c0 19 15 34 34 34 19 0 34-15 34-34 0-19-15-34-34-34-19 0-34 15-34 34z m-30-104c4 31 31 54 64 54 33 0 60-23 63-54z"/>
<glyph unicode="&#108;" d="M143 404l0-322 221 0 0 322z m210-312l-199 0 0 251 51 51 148 0z m-188 217l179 0 0-5-179 0z m0-26l179 0 0-6-179 0z m0-29l179 0 0-5-179 0z m0-28l179 0 0-5-179 0z m102-83l77 0 0-5-77 0z"/>
<glyph unicode="&#112;" d="M81 462c0-17-14-30-30-30-17 0-31 13-31 30 0 17 14 30 31 30 16 0 30-13 30-30z m-2 0c0-15-13-28-28-28-16 0-28 13-28 28 0 15 12 28 28 28 15 0 28-13 28-28z"/>
<glyph unicode="&#113;" d="M445 15c0 0 0 0 0 0-3 1-5 2-7 4l-92 105c-35-88-36-88-44-88-2 0-3 0-5 1-2 1-3 3-4 5-114 280-113 285-112 290 2 4 6 7 11 7 6 0 32-8 262-106 13-5 21-9 22-9 1-1 2-1 2-1 4-2 6-7 5-12-1-4-5-7-9-7-7-2-39-15-72-29l97-101c2-2 3-5 3-8 0-3-2-5-4-7l-46-41c-2-2-4-3-7-3z m-102 139c3 0 6-2 8-4l95-110 31 27-100 105c-3 3-4 6-3 9 1 4 3 6 6 8 31 12 51 21 65 26-126 53-205 86-238 98 15-42 60-154 96-241 8 19 20 48 31 75 1 3 4 6 7 6 1 1 1 1 2 1z m-231 241c-3 0-6 1-9 3l-42 43c-5 5-5 13 0 18 5 5 13 5 18 0l42-43c5-5 5-13 0-18-2-2-5-3-9-3z m-28-50c-2 0-3 0-4 0l-58 16c-7 1-11 8-9 15 2 7 9 11 16 9l58-15c7-2 11-9 9-16-2-6-7-9-12-9z m-58-74c-6 0-11 4-13 10-2 7 2 14 9 15l58 16c7 2 14-2 16-9 2-7-2-14-9-16l-58-15c-1-1-2-1-3-1z m44-77c-3 0-7 2-9 4-5 5-5 13 0 18l42 43c5 5 13 5 18 0 5-5 5-13 0-18l-42-43c-2-2-6-4-9-4z m77-44c-1 0-2 0-3 0-7 2-11 9-9 16l15 58c2 7 9 11 16 9 7-2 11-9 9-16l-16-57c-1-6-6-10-12-10z m152 195c-6 0-11 3-12 9-2 7 2 14 9 16l58 15c6 2 13-2 15-9 2-7-2-14-9-15l-58-16c-1 0-2 0-3 0z m-29 50c-3 0-6 1-9 3-5 5-5 13 0 18l43 43c5 5 13 5 18 0 5-5 5-13 0-18l-43-43c-2-2-6-3-9-3z m-50 28c-1 0-2 1-3 1-7 2-11 9-9 16l15 57c2 7 9 11 16 10 7-2 11-9 9-16l-15-58c-2-6-7-10-13-10z m-58 0c-5 0-10 4-12 10l-15 58c-2 7 2 14 9 16 6 1 13-3 15-10l16-57c2-7-2-14-9-16-1 0-2-1-4-1z"/>
<glyph unicode="&#117;" d="M468 82l-424 0c-10 0-18 8-18 18l0 312c0 10 8 18 18 18 11 0 19-8 19-18l0-293 405 0c10 0 18-8 18-19 0-10-8-18-18-18z m-352 85c-3 0-6 1-8 2-9 4-13 15-9 25l77 155c2 4 7 8 12 9 5 2 11 0 16-3l106-81 140 32c10 3 20-3 22-13 2-10-4-20-14-23l-148-34c-5-1-11 0-15 3l-96 73-66-135c-3-6-10-10-17-10z"/>
<glyph unicode="&#118;" d="M128 64l256 0c35 0 64 29 64 64l0 256c0 35-29 64-64 64l-256 0c-35 0-64-29-64-64l0-256c0-35 29-64 64-64z m22 298l213 0 0-42-213 0z m0-84l213 0 0-43-213 0z m0-86l128 0 0-42-128 0z"/>
<glyph unicode="&#119;" d="M256 464l71-144 159-23-115-112 28-159-143 75-142-75 27 159-115 112 159 23z"/>
<glyph unicode="&#112;" d="M256 464c-127 0-230-103-230-230 0-77 37-144 94-186 19 57 73 98 136 98 63 0 117-41 136-98 57 42 94 109 94 186 0 127-103 230-230 230z m0-285c-48 0-88 39-88 88 0 48 40 88 88 88 48 0 88-40 88-88 0-49-40-88-88-88z"/>
<glyph unicode="&#113;" d="M280 374c5-5 5-12 0-16l-71-72c-5-4-12-4-17 0-4 5-4 12 0 16l72 72c4 4 12 4 16 0z m34-210c5-4 12-4 17 0l71 72c5 4 5 11 0 16-4 4-12 4-16 0l-72-72c-4-4-4-11 0-16z m36 348l-236 0 0-378-86-81 53-53 33 35 0-5 372 0 0 341z m7-63l63-66-63 0z m90-380l-294 0 0 8 127 136 26-27 74 74-92 92-74-74 27-26-88-82 0 303 174 0 0-119 120 0z"/>
<glyph unicode="&#114;" d="M294 425c-61-23-104-82-132-136l128-127c54 27 113 70 135 133 21 61 37 168 37 168 0 0-109-16-168-38z m103-81c-15-15-38-15-53 0-15 14-15 38 0 53 15 15 38 15 53 0 15-15 15-39 0-53z m-124-190l-119 118c-3-8-7-15-10-23l-76-3-18-18 77-22c-4-13-6-21-6-21l11-11c-5-2-8-6-12-10-29-29-31-76-31-76 0 0 47 2 76 31 4 4 7 7 10 12l10-10c0 0 8 2 22 6l21-79 18 18 3 77c8 3 16 7 24 11z m-143-24c0 0 1 19 12 34l22-22c-14-11-34-12-34-12z"/>
<glyph unicode="&#115;" d="M108 512c96 0 193 0 289 0 38 0 77 0 115 0 0-35 0-69 0-104 0-100 0-201 0-301-135 0-270 0-404 0-1 134 0 267 0 401 0 1 0 3 0 4z m18-19c0-122 0-245 0-367 123 0 245 0 368 0 0 122 0 245 0 367-12 1-24 1-36 1-92 0-184 0-276 0-19 0-37 0-56-1z m156-49c54 0 108 0 163 0 0-54 0-108 0-162-17 0-33 0-49 0 0 26 0 52 0 79-6-6-11-11-17-17-31-31-62-62-93-92-5-5-9-10-14-15-12 12-23 23-35 35 39 38 77 77 116 115 3 3 5 6 8 8-12 1-23 0-34 0-15 0-30 1-45 0 0 17 0 33 0 49z m-282-205c7 0 13 0 19 0 0-6 0-11 0-17 1-1 0-2-1-2-6 0-12 0-18 0 0 6 0 13 0 19z m35 0c7 0 14 0 21 0 0-6 0-12 0-18-7 0-14 0-21 0 0 6 0 12 0 18z m37 0c7 0 14 0 21 0 0-6 0-12 0-18-7 0-14 0-21 0 0 6 0 12 0 18z m-72-35c6 0 12 0 19 0 0-7 0-14-1-21-6 0-12 0-18 0 0 7 0 14 0 21z m0-37c6 0 12 0 18 0 1-7 1-14 0-21-6 0-12 0-18 0 0 4 0 7 0 11 0 3 0 7 0 10z m0-37c6 0 12 0 18 0 1-7 1-14 1-21-7 0-13 0-19 0 0 7 0 14 0 21z m0-37c6 0 12 0 19 0 0-7 0-14 0-21-7 0-13 0-19 0 0 7 0 14 0 21z m221 0c6 0 12 0 18 0 0-7 0-14 0-21-6 0-12 0-18 0 0 7 0 14 0 21z m-221-37c6 0 12 0 18 0 1-7 1-14 0-21-6 0-12 0-18 0 0 4 0 8 0 13 0 2 0 5 0 8z m221 0c6 0 12 0 18 0 0-7 0-14 0-21-6 0-12 0-18 0 0 4 0 7 0 10 0 4 0 8 0 11z m-221-37c6 0 12 0 18 0 1 0 2-1 1-2 0-6 1-11 0-17-6 0-12 0-19 0 0 6 0 13 0 19z m221 0c6 0 12 0 18 0 0-6 0-13 0-19-6 0-12 0-19 0 0 6 0 12 0 18 0 0 1 1 1 1z m-186 0c7-1 14-1 21 0 1-7 0-13 0-19-7 0-14 0-21 0 0 6 0 12 0 19z m111 0c7-1 14-1 21 0 0-7 0-13 0-19-7 0-14 0-21 0 0 6 0 12 0 19z m-74-1c7 0 14 1 21 0 0-6 0-12 0-18-7 0-14 0-21 0 0 6 0 12 0 18z m37 0c7 1 14 0 21 0 0-6 1-12 0-18-7 0-14 0-21 0 0 6 0 12 0 18z m74 0c7 0 14 1 21 0 0-6 0-12 0-18-7 0-14 0-21 0 0 6 0 12 0 18z"/>
<glyph unicode="&#116;" d="M434 423c1 0-86 1-86 1 0 2-1 4-1 6 0 17 14 31 32 31 15 0 27-11 30-25l26 0c-3 28-27 50-56 50-32 0-57-25-57-56 0-2 0-4 1-6l-214 0c-1 2-1 4-1 6 0 17 14 31 31 31 16 0 28-11 31-25l25 0c-3 28-27 50-56 50-31 0-56-25-56-56 0-2 0-4 0-7-32-2-57-29-57-62l0-273c0-34 28-62 62-62l336 0c34 0 62 28 62 62l0 273c0 31-22 57-52 62z m12-68l0-273-1 0c-3-9-11-16-21-16l-336 0c-10 0-18 7-21 16l-1 0 0 278 1 0c3 9 11 17 21 17l336 0c10 0 18-8 21-17l1 0 0-5z m-345-29l315 0 0-40-315 0z m0-79l315 0 0-40-315 0z m0-79l228 0 0-41-228 0z"/>
<glyph unicode="&#121;" d="M256 486c-99 0-150-76-149-153 1-112 112-154 149-307 37 153 149 197 149 307 0 77-58 153-149 153m-3-22c60 0 110-50 110-111 0-61-50-109-110-109-49 0-89 40-89 90 0 50 40 89 89 89 38 0 70-31 70-70 0-39-32-69-70-69-26 0-48 22-48 50 0 28 22 50 48 50 16 0 30-14 30-31 0-18-16-29-26-29-9-36-14 6-15 12-1 7 2898 15 11 17 7 2 12-5 12 0 0 6-5 11-12 11-18 0-31-13-31-30 0-17 13-31 31-31 29 0 52 23 52 50 0 28-23 52-52 52-40 0-71-32-71-71 0-39 31-71 71-71 51 0 92 40 92 90 0 50-41 91-92 91-62 0-114-49-112-110 2079-75 63-124 102-194 9-16 11-33 6-36-6-2376-8 3-10 7-30 77-110 129-115 223 0 72 58 130 129 130"/>
<glyph unicode="&#122;" d="M256 404c25 0 49-6 70-18-1 4-1 7-1 11 0 2 0 5 1 8-21 10-45 16-70 16-25 0-49-6-70-16 1-3 1-6 1-8 0-4 0-8-1-11 21 12 45 18 70 18z m142-142c0 0 0 0 0 0 0-54-30-100-74-125 4-4 8-8 11-12 48 27 80 78 80 137 0 0 0 0 0 0z m-210-125c-44 25-74 71-74 125 0 0 0 0 0 0l-17 0c0 0 0 0 0 0 0-59 32-110 80-137 3 4 7 8 11 12z m281 150c0 32-21 59-50 70 12 9 20 23 20 40 0 27-22 49-49 49-27 0-50-22-50-49 0-17 8-31 20-40-29-11-50-39-50-72 0-4 4-7 8-7l144 0c0 0 0 0 0 0 4 0 7 3 7 7 0 1 0 1 0 2z m-113 110c0 19 15 34 34 34 19 0 34-15 34-34 0-19-15-34-34-34-19 0-34 15-34 34z m-30-104c4 31 31 54 64 54 32 0 59-23 63-54z m-132-15c4 0 8 3 8 7 0 1-1 1-1 2 0 32-21 59-50 70 13 9 21 23 21 40 0 27-23 49-50 49-27 0-49-22-49-49 0-17 7-31 20-40-30-11-50-39-50-72 0-4 3-7 7-7l144 0c0 0 0 0 0 0z m-106 119c0 19 15 34 34 34 19 0 34-15 34-34 0-19-15-34-34-34-19 0-34 15-34 34z m-29-104c3 31 30 54 63 54 33 0 60-23 64-54z m226-148c13 9 20 23 20 40 0 27-22 49-49 49-27 0-50-22-50-49 0-17 8-31 21-40-30-11-50-39-50-72 0-4 3-7 7-7l144 0c0 0 0 0 0 0 4 0 7 3 7 7 0 1 0 1 0 2 0 32-21 59-50 70z m-63 40c0 19 15 34 34 34 19 0 34-15 34-34 0-19-15-34-34-34-19 0-34 15-34 34z m-30-104c4 31 31 54 64 54 33 0 60-23 63-54z"/>
<glyph unicode="&#65;" d="M256 464c-127 0-230-103-230-230 0-77 37-144 94-186 19 57 73 98 136 98 63 0 117-41 136-98 57 42 94 109 94 186 0 127-103 230-230 230z m0-285c-48 0-88 39-88 88 0 48 40 88 88 88 48 0 88-40 88-88 0-49-40-88-88-88z"/>
<glyph unicode="&#66;" d="M129 351c-32 0-42-32-24-50l130-132c12-12 31-12 43 0l130 130c16 16 9 52-23 52-34 0-231 0-256 0z"/>
<glyph unicode="&#67;" d="M248 512c-137 0-248-111-248-248 0-137 111-248 248-248 137 0 248 111 248 248 0 137-111 248-248 248z m216-240l-96 0c-1 35-8 69-19 100 22 9 42 21 60 35 32-36 53-83 55-135z m-225-224c-26 23-49 51-65 85 21 6 43 10 66 11l0-96c0 0-1 0-1 0z m18 432c30-26 55-59 71-98-23-8-47-13-72-14l0 112c0 0 1 0 1 0z m26-3c45-8 84-28 115-58-17-13-35-24-55-32-14 35-35 65-60 90z m-43 3l0-112c-25 1-49 6-72 14 16 39 41 72 71 98 0 0 1 0 1 0z m-87-93c-20 8-38 19-55 32 31 30 70 50 115 58-25-25-46-55-60-90z m9-20c24-9 51-14 78-15l0-80-96 0c1 34 7 66 18 95z m78-111l0-96c-25-1-50-5-73-13-13 33-22 70-23 109z m-27-205c-40 7-76 24-105 49 16 11 33 20 51 27 14-29 32-54 54-76z m43-3l0 96c23-1 45-5 66-11-16-34-39-62-65-85 0 0-1 0-1 0z m81 79c18-7 35-16 51-27-29-25-65-42-105-49 22 22 40 47 54 76z m-8 20c-23 8-48 12-73 13l0 96 96 0c-1-39-10-76-23-109z m-73 125l0 80c27 1 54 6 78 15 11-29 17-62 18-95l-96 0z m-169 135c18-14 38-26 60-35-11-31-18-65-19-100l-96 0c2 52 23 99 55 135z m-55-151l96 0c1-41 10-79 24-114-20-8-39-19-56-31-38 37-62 88-64 145z m368-145c-17 12-36 23-56 31 14 35 23 73 24 114l96 0c-2-57-26-108-64-145z"/>
<glyph unicode="&#102;" d="M81 462c0-17-14-30-30-30-17 0-31 13-31 30 0 17 14 30 31 30 16 0 30-13 30-30z m-2 0c0-15-13-28-28-28-16 0-28 13-28 28 0 15 12 28 28 28 15 0 28-13 28-28z"/>
<glyph unicode="&#68;" d="M445 15c0 0 0 0 0 0-3 1-5 2-7 4l-92 105c-35-88-36-88-44-88-2 0-3 0-5 1-2 1-3 3-4 5-114 280-113 285-112 290 2 4 6 7 11 7 6 0 32-8 262-106 13-5 21-9 22-9 1-1 2-1 2-1 4-2 6-7 5-12-1-4-5-7-9-7-7-2-39-15-72-29l97-101c2-2 3-5 3-8 0-3-2-5-4-7l-46-41c-2-2-4-3-7-3z m-102 139c3 0 6-2 8-4l95-110 31 27-100 105c-3 3-4 6-3 9 1 4 3 6 6 8 31 12 51 21 65 26-126 53-205 86-238 98 15-42 60-154 96-241 8 19 20 48 31 75 1 3 4 6 7 6 1 1 1 1 2 1z m-231 241c-3 0-6 1-9 3l-42 43c-5 5-5 13 0 18 5 5 13 5 18 0l42-43c5-5 5-13 0-18-2-2-5-3-9-3z m-28-50c-2 0-3 0-4 0l-58 16c-7 1-11 8-9 15 2 7 9 11 16 9l58-15c7-2 11-9 9-16-2-6-7-9-12-9z m-58-74c-6 0-11 4-13 10-2 7 2 14 9 15l58 16c7 2 14-2 16-9 2-7-2-14-9-16l-58-15c-1-1-2-1-3-1z m44-77c-3 0-7 2-9 4-5 5-5 13 0 18l42 43c5 5 13 5 18 0 5-5 5-13 0-18l-42-43c-2-2-6-4-9-4z m77-44c-1 0-2 0-3 0-7 2-11 9-9 16l15 58c2 7 9 11 16 9 7-2 11-9 9-16l-16-57c-1-6-6-10-12-10z m152 195c-6 0-11 3-12 9-2 7 2 14 9 16l58 15c6 2 13-2 15-9 2-7-2-14-9-15l-58-16c-1 0-2 0-3 0z m-29 50c-3 0-6 1-9 3-5 5-5 13 0 18l43 43c5 5 13 5 18 0 5-5 5-13 0-18l-43-43c-2-2-6-3-9-3z m-50 28c-1 0-2 1-3 1-7 2-11 9-9 16l15 57c2 7 9 11 16 10 7-2 11-9 9-16l-15-58c-2-6-7-10-13-10z m-58 0c-5 0-10 4-12 10l-15 58c-2 7 2 14 9 16 6 1 13-3 15-10l16-57c2-7-2-14-9-16-1 0-2-1-4-1z"/>
<glyph unicode="&#102;" d="M34 113l206-87 0 253-206 87z m238 166l0-253 206 87 0 253z m190 119l-206 88-83-35 206-88z m-329 36l-83-36 206-88 83 35z"/>
<glyph unicode="&#120;" d="M416 429l0 28-322 0 0-403 28 0 0 375z m-58 55l0 28-322 0 0-403 28 0 0 375z m86-81l-292 0 0-403 323 0 0 403z"/>
<glyph unicode="&#68;" d="M89 206l0 4-24 0 0-17c0-10 7-17 17-17l132 0c0-1-1-2-1-2 0-10-9-26-20-36l-15-14c-11-10-8-19 6-19l120 0c14 0 18 9 6 19l-15 14c-11 10-20 26-20 36 0 0 0 1 0 2l48 0 0 31-234 0z m168-15l-7 0z m-17 0l-7 0z m-151 200l306 0 0-74 24 11 0 76c0 10-7 18-17 18l-320 0c-10 0-17-8-17-18l0-16 24 0z m162-70l-17 52-16-52-55 0 44-32-17-52 44 32 45-32-17 52 45 32z m-133-85l0 126c0 9-7 15-16 15l-60 0c-9 0-16-7-16-15l0-126c0-9 7-15 16-15l60 0c9 0 16 7 16 15z m-46-4c-4 0-7 4-7 8 0 4 3 8 7 8 4 0 8-4 8-8 0-4-4-8-8-8z m-33 23l0 99 66 0 0-99z m57 64l-18 0-6 17-5-17-19 0 15-11-6-18 15 11 15-11-6 18z m380-37l-2 0 0 16c0 3-1 6-3 7-3 2-5 3-8 2l-4-1-9-2 0 13c0 4-2 6-5 8-2 1-5 2-8 0l-99-43c0 0 0 0 0-1-1 0-1 0-1 0-1-1-1-1-2-1 0 0 0-1 0-1-1-1-1-1-1-2 0-1-1-1-1-1 0-1 0-2 0-3l0-165c0-5 4-9 9-9l134 0c5 0 9 4 9 9l0 165c0 5-4 9-9 9z m-125-165l0 147 116 0 0-147-116 0z m81 184l-13-3 13 6z m24-19l-32 0 32 6z m-62-95l-8-27 23 17 24-17-10 27 24 17-29 0-9 28-9-28-29 0z"/>
<glyph unicode="&#69;" d="M142 319c14 0 25 9 29 22l222 0c4 0 7 4 7 8 0 4-3 8-7 8l-222 0c-4 12-15 22-29 22-17 0-30-14-30-30 0-17 13-30 30-30z m0 45c5 0 10-3 12-7l-12 0c-4 0-8-4-8-8 0-4 4-8 8-8l12 0c-2-4-7-7-12-7-8 0-15 7-15 15 0 8 7 15 15 15z m251-100l-222 0c-4 13-15 22-29 22-17 0-30-13-30-30 0-17 13-30 30-30 14 0 25 9 29 22l222 0c4 0 7 4 7 8 0 4-3 8-7 8z m-251-16l12 0c-2-4-7-7-12-7-8 0-15 7-15 15 0 8 7 15 15 15 5 0 10-3 12-7l-12 0c-4 0-8-4-8-8 0-4 3-8 8-8z m251-77l-222 0c-4 13-15 22-29 22-17 0-30-13-30-30 0-16 13-30 30-30 14 0 25 10 29 22l222 0c4 0 7 4 7 8 0 4-3 8-7 8z m-251-16l12 0c-2-4-7-7-12-7-8 0-15 7-15 15 0 8 7 15 15 15 5 0 10-3 12-7l-12 0c-4 0-8-4-8-8 0-4 3-8 8-8z"/>
<glyph unicode="&#71;" d="M81 462c0-17-14-30-30-30-17 0-31 13-31 30 0 17 14 30 31 30 16 0 30-13 30-30z m-2 0c0-15-13-28-28-28-16 0-28 13-28 28 0 15 12 28 28 28 15 0 28-13 28-28z"/>
<glyph unicode="&#72;" d="M256 0c-141 0-256 115-256 256 0 141 115 256 256 256 141 0 256-115 256-256 0-141-115-256-256-256z"/>
<glyph unicode="&#73;" d="M421 246l0-91c0-22-8-42-25-58-16-16-35-24-58-24l-237 0c-23 0-42 8-59 24-16 16-24 36-24 58l0 238c0 23 8 42 24 58 17 16 36 24 59 24l237 0c12 0 23-2 34-7 3-1 4-3 5-6 0-4 0-6-3-9l-14-14c-2-1-4-2-6-2-1 0-2 0-3 0-4 1-9 2-13 2l-237 0c-13 0-24-5-33-14-9-9-13-19-13-32l0-238c0-12 4-23 13-32 9-9 20-13 33-13l237 0c13 0 24 4 33 13 9 9 13 20 13 32l0 73c0 2 1 5 3 6l18 19c2 1 4 2 6 2 2 0 3 0 4 0 4-2 6-5 6-9z m66 140l-233-233c-5-4-10-6-16-6-7 0-12 2-17 6l-122 123c-5 5-7 10-7 17 0 6 2 11 7 16l31 31c5 5 10 7 16 7 7 0 12-2 17-7l75-75 185 185c4 5 10 7 16 7 6 0 12-2 16-7l32-31c4-5 6-10 6-17 0-6-2-11-6-16z"/>
<glyph unicode="&#74;" d="M403 302c0 6-1 10-5 13l-26 26c-3 4-8 6-13 6-5 0-9-2-12-6l-117-116-65 64c-3 4-7 6-12 6-5 0-10-2-13-6l-26-25c-4-4-5-8-5-13 0-6 1-10 5-13l103-104c4-3 8-5 13-5 5 0 10 2 13 5l155 155c4 4 5 8 5 13z m72-46c0-40-9-77-29-110-20-34-46-60-80-80-33-20-70-29-110-29-40 0-77 9-110 29-34 20-60 46-80 80-20 33-29 70-29 110 0 40 9 77 29 110 20 34 46 60 80 80 33 20 70 29 110 29 40 0 77-9 110-29 34-20 60-46 80-80 20-33 29-70 29-110z"/>
<glyph unicode="&#109;" d="M483 38l-290 0c-10 0-18 8-18 18l0 76c0 11 8 19 18 19l290 0c10 0 19-8 19-19l0-76c0-10-9-18-19-18z m-290 102c-4 0-7-4-7-8l0-76c0-4 3-7 7-7l290 0c4 0 7 3 7 7l0 76c0 4-3 8-7 8z m-158 38c6-9 28-41 31-41 8 2 291 122 291 122 0 0 5 2 6 7 0 5-8 35-11 43z m93 154c0 0 10-11 12-22 2-11 5-23 10-27 4-4 17-10 29-7 10 2 22 7 26 16 2 5 6 24-5 34-9 8-15 11-17 19-1 8-1 14-1 14 0 0-10-15-24-21-12-6-30-6-30-6z m186 53c0 0-3 7-10 4-2-1-55-23-115-48 2-3 5-5 8-7 2-2 4-4 6-6 13-12 8-33 6-38-5-11-18-16-29-19-3 0-5-1-7-1-11 0-21 6-26 9-6 6-10 23-11 30-1 3-2 6-3 8-60-25-113-48-113-48 0 0-12-5-7-21 2-6 12-44 18-61l317 131c-9 19-34 67-34 67z m-187 103c-10 0-21-2-31-6-34-12-55-41-47-63 5-15 22-24 45-24 10 0 21 2 31 5 17 6 31 16 40 28 9 12 12 25 8 35-6 15-23 25-46 25z m-33-101c-13 0-24 3-33 8l27-45c3-2 21-13 41-13 0 0 0 0 0 0 10 0 24 3 32 8 27 19 32 45 33 49l-15 49c-5-20-25-40-52-50-11-4-22-6-33-6z m387-274l0 7c0 5-4 9-9 9l-267 0c-5 0-9-4-9-9l0-7z m-285-22l285 0 0-9-285 0z m0 16l285 0 0-10-285 0z m0-31l0-7c0-5 4-9 9-9l267 0c5 0 9 4 9 9l0 7z"/>
<glyph unicode="&#75;" d="M150 336c16 0 31 6 42 16-16 17-26 39-26 64 0 16 4 30 10 43-8 4-16 6-26 6-35 0-64-29-64-65 0-35 29-64 64-64z m209 80c0-25-10-47-26-64 12-10 26-16 42-16 35 0 64 29 64 64 0 36-29 65-64 65-9 0-18-2-26-6 6-13 10-27 10-43z m-209-240l-16 144c-36-2-80-16-80-16l16-112 32-32 0-97c0 0 21-16 40-16 19 0 40 16 40 16l0 91z m241 142l-16-142-48-32 0-81c0 0 21-16 40-16 19 0 40 16 40 16l0 97 36 29 12 113c0 0-32 11-64 16z m-241-14c0 0 64 16 113 16 48 0 112-16 112-16l-16-128-48-32 0-113c0 0-24-16-48-16-25 0-48 16-48 16l0 113-49 32z m113 193c44 0 80-36 80-81 0-44-36-80-80-80-45 0-81 36-81 80 0 45 36 81 81 81z"/>
<glyph unicode="&#76;" d="M0 512l0-512 512 0 0 512z m477-203l-136 0 0 73 136 0 0-73z m-147-96l-148 0 0 85 148 0z m-148 96l0 73 148 0 0-73z m-23 73l12 0 0-73-136 0 0 73z m12-84l0-85-136 0 0 85z m-136-95l136 0 0-85-136 0z m147 0l148 0 0-85-148 0z m159 0l136 0 0-85-136 0z m0 10l0 85 136 0 0-85z m-306-178l0 73 136 0 0-73z m147 0l0 73 148 0 0-73z m159 73l136 0 0-73-136 0z"/>
<glyph unicode="&#109;" d="M0 512l0-512 512 0 0 512z m477-203l-136 0 0 73 136 0 0-73z m-147-96l-148 0 0 85 148 0z m-148 96l0 73 148 0 0-73z m-23 73l12 0 0-73-136 0 0 73z m12-84l0-85-136 0 0 85z m-136-95l136 0 0-85-136 0z m147 0l148 0 0-85-148 0z m159 0l136 0 0-85-136 0z m0 10l0 85 136 0 0-85z m-306-178l0 73 136 0 0-73z m147 0l0 73 148 0 0-73z m159 73l136 0 0-73-136 0z"/>
<glyph unicode="&#70;" d="M483 38l-290 0c-10 0-18 8-18 18l0 76c0 11 8 19 18 19l290 0c10 0 19-8 19-19l0-76c0-10-9-18-19-18z m-290 102c-4 0-7-4-7-8l0-76c0-4 3-7 7-7l290 0c4 0 7 3 7 7l0 76c0 4-3 8-7 8z m-158 38c6-9 28-41 31-41 8 2 291 122 291 122 0 0 5 2 6 7 0 5-8 35-11 43z m93 154c0 0 10-11 12-22 2-11 5-23 10-27 4-4 17-10 29-7 10 2 22 7 26 16 2 5 6 24-5 34-9 8-15 11-17 19-1 8-1 14-1 14 0 0-10-15-24-21-12-6-30-6-30-6z m186 53c0 0-3 7-10 4-2-1-55-23-115-48 2-3 5-5 8-7 2-2 4-4 6-6 13-12 8-33 6-38-5-11-18-16-29-19-3 0-5-1-7-1-11 0-21 6-26 9-6 6-10 23-11 30-1 3-2 6-3 8-60-25-113-48-113-48 0 0-12-5-7-21 2-6 12-44 18-61l317 131c-9 19-34 67-34 67z m-187 103c-10 0-21-2-31-6-34-12-55-41-47-63 5-15 22-24 45-24 10 0 21 2 31 5 17 6 31 16 40 28 9 12 12 25 8 35-6 15-23 25-46 25z m-33-101c-13 0-24 3-33 8l27-45c3-2 21-13 41-13 0 0 0 0 0 0 10 0 24 3 32 8 27 19 32 45 33 49l-15 49c-5-20-25-40-52-50-11-4-22-6-33-6z m387-274l0 7c0 5-4 9-9 9l-267 0c-5 0-9-4-9-9l0-7z m-285-22l285 0 0-9-285 0z m0 16l285 0 0-10-285 0z m0-31l0-7c0-5 4-9 9-9l267 0c5 0 9 4 9 9l0 7z"/>
<glyph unicode="&#77;" d="M255 373c-26 0-47-22-47-48 0-19 11-36 28-43 6-3 12-4 19-4 7 0 13 1 19 4 17 7 29 24 29 43 0 26-22 48-48 48z m104-80c0-17 10-32 25-38 5-3 11-4 17-4 6 0 12 1 17 4 15 6 25 21 25 38 0 24-18 43-42 43-23 0-42-19-42-43z m-250 43c-23 0-42-19-42-43 0-17 10-32 25-38 5-3 11-4 17-4 6 0 12 1 17 4 15 6 25 21 25 38 0 24-18 43-42 43z m402-69l0 7c-10 133-121 238-256 238-141 0-256-115-256-256 0-141 115-256 256-256 142 0 256 115 256 256 0 4 0 7 0 11z m-454-149c-3 4-6 9-9 13l0 69c0 3 2 5 5 5 2 0 4-2 4-5z m140-96c-3 1-7 2-10 3l0 196c0 3 2 5 5 5 3 0 5-2 5-5z m127 3c-4-1-7-2-11-3l0 199c0 3 3 5 5 5 3 0 5-2 5-5l0-196z m138 106c-6-9-9-13-9-13l0 82c0 3 2 5 4 5 3 0 5-2 5-5z m26 61l0 32c0 10-8 18-18 18l-110 0 0-204c-5-2-10-4-7-3l0 212c0 11-9 20-21 20l-154 0c-11 0-20-9-20-20l0-212c-3 1-5 2-7 4l0 203-110 0c-10 0-19-8-19-18l0-32c-5 21-8 42-8 64 0 133 108 241 241 241 133 0 241-108 241-241 0-28-8-64-8-64z"/>
<glyph unicode="&#78;" d="M257 356l-26 23-52-59c-11-13-30-14-43-3-12 11-14 30-3 43l72 81c11 13 30 14 43 3l138-121 51 59c11 12 30 14 43 3 12-11 14-31 3-43l-72-82c-11-12-30-14-43-3l0 1-42 37-51-69 30-22 0 0c13-14 18-33 7-49l-74-98c-11-16-33-19-48-7l0 0c-15 11-18 32-7 48l53 71-21 16-127-171c-12-15-33-19-49-7-15 11-18 33-7 48z m152 140c29-22 35-64 13-93-22-30-63-36-93-14-30 22-36 64-14 94 22 29 64 35 94 13z"/>
<glyph unicode="&#79;" d="M40 512l246 0c10 0 18-8 18-18l0-244c-6-2-12-6-16-10l0 254-249 0 0-403 134 0c3-6 8-12 15-15 5-3 10-6 14-9 33-18 61-34 88-47-1 0-3 0-4 0l-246 0c-9 0-17 8-17 17l0 457c0 10 8 17 17 17z m123-436c12 0 21-10 21-21 0-12-9-21-21-21-12 0-21 9-21 21 0 11 10 21 21 21z m-105 262l99 0 0-96-99 0z m113 111l98 0 0-98-98 0z m3-110l96 0 0-97-99 0 0 97z m89-7l-86 0 0-84 86 0z m-109 110l-93 0 0 7 93 0 3-3-3-3z m0 7l3 0 0-3z m-4-94l0 91 7 0 0-91-4-3-3 3z m7 0l0-3-4 0z m-96 3l93 0 0-6-93 0-3 3 3 3z m0-6l-3 0 0 3z m4 93l0-90-7 0 0 90 4 3 3-3z m-7 0l0 3 4 0z m153-133c15 6 33-1 39-16l36-84c0 12 7 23 18 29 14 5 30 0 38-13 1 11 8 20 18 25 11 5 24 1 32-7 8 18 27 20 40 12 49-30 103-206-3-250-63-26-129 14-237 74-14 8-17 26-11 41 8 15 27 20 41 12l42-24-8 21c-1 1-2 3-2 4l-58 137c-7 15 1 32 16 39z"/>
<glyph unicode="&#80;" d="M386 260l-171 0 0 30c-10 15-16 32-16 51 0 19 6 37 16 51l0 66c0 13-10 23-23 23l-15 0c-13 0-23-10-23-23l0-407c0-13 10-24 23-24l209 0c13 0 24 11 24 24l0 186c0 13-11 23-24 23z m-100 161c-44 0-79-36-79-80 0-44 35-79 79-79 44 0 80 35 80 79 0 44-36 80-80 80z m26-36c7 0 12-5 12-12 0-6-5-11-12-11-6 0-11 5-11 11 0 7 5 12 11 12z m-52 0c6 0 11-5 11-12 0-6-5-11-11-11-7 0-12 5-12 11 0 7 5 12 12 12z m26-94c-23 0-42 15-42 33 34 0 58 0 84 0 0-18-19-33-42-33z"/>
<glyph unicode="&#81;" d="M256 512c-140 0-253-115-253-256 0-141 113-256 253-256 140 0 254 115 254 256 0 141-114 256-254 256z m0-453c-108 0-195 88-195 197 0 109 87 197 195 197 108 0 195-88 195-197 0-109-87-197-195-197z m-21 124l46 0 0 36c0 9 5 19 17 27 12 8 46 24 46 66 0 43-36 72-66 79-30 6-62 2-85-24-21-22-25-40-25-80l46 0 0 10c0 21 3 43 33 49 16 3 31-2 41-11 10-10 10-33-7-45l-26-17c-15-10-20-21-20-37l0-53z m0-66l0 47 47 0 0-47z"/>
<glyph unicode="&#82;" d="M261 283c35 0 63 28 63 63 0 35-28 64-63 64-35 0-63-29-63-64 0-35 28-63 63-63z m-131-17c32 0 58 26 58 58 0 31-26 57-58 57-31 0-57-26-57-57 0-32 26-58 57-58z m320-17c-7 7-7 50-7 52 0 0 0 0 0 0 0 28-23 51-52 51-28 0-51-23-51-51 0 0 0-45-7-52l117 0z m-46-11c12-10 13-15 13-16 0 0 0 0 0 0-1-2-1-3-3-4-2-2-4-3-7-4-4-3-10-4-16-4-5 0-11 1-16 4-3 1-5 2-7 4-1 1-2 2-2 3 0 1 0 1 0 1 0 1 1 6 12 16-13-2-25-8-35-17-19 30-48 50-82 50-29 0-56-15-74-39-16 15-35 23-57 23-51 0-93-51-93-114 0-22 14-39 31-39l262 0c1 0 2 0 3 1 0-1 1-1 2-1l112 0c16 0 28 16 28 35 0 51-30 93-71 101z m-256-3c0-1-1-5-10-13l-2-2 12-83-13-15-3-3-2-2-1 2-3 3-13 15 12 83-2 2c-10 9-10 13-10 13 0 0 0 1 0 1 0 0 1 1 2 2 1 1 2 2 4 3 4 1 8 3 11 3 4 0 8-2 12-3 2-1 3-2 4-3 1-1 2-2 2-2 0 0 0-1 0-1z m132 14c0-1-1-5-11-14l-2-2 13-92-14-17-3-3-2-3-2 3-3 3-14 17 13 92-2 2c-11 9-11 13-11 14 0 0 0 0 0 0 0 1 0 2 2 3 1 1 3 2 5 3 3 2 8 3 12 3 4 0 9-1 13-3 2-1 3-2 4-3 2-1 2-2 2-3 0 0 0 0 0 0z"/>
<glyph unicode="&#83;" d="M440 77c-23 66-52 130-87 191 21 23 34 54 34 87 0 73-59 131-131 131-72 0-131-58-131-131 0-33 13-64 34-87-35-61-64-125-87-191-1-2 0-5 2-7 2-1 5-2 7 0 26 14 53 28 80 40 10-27 22-54 35-81 1-2 3-3 5-3 1 0 1 0 1 0 2 0 5 1 6 4 13 39 30 78 48 115 19-37 35-76 49-115 0-3 3-4 5-4 0 0 1 0 1 0 2 0 4 1 6 3 12 26 23 53 34 81 27-12 54-26 80-40 2-2 5-1 7 0 2 2 3 5 2 7z m-184 383c58 0 105-47 105-105 0-58-47-105-105-105-58 0-105 47-105 105 0 58 47 105 105 105z m-55-411c-11 24-21 48-30 72-1 2-2 3-4 4 0 0-1 0-2 0-1 0-2 0-3 0-24-11-48-23-72-36 21 59 48 115 78 169 11-10 24-18 38-24 15-24 30-49 43-75-18-36-35-72-48-110z m149 76c-2 0-4 1-5 0-2-1-3-2-4-4-9-25-19-49-30-72-23 63-52 123-87 179 11-2 21-4 32-4 34 0 64 13 88 34 30-54 57-110 78-169-24 13-48 25-72 36z m-18 241l-152 0c-4 0-7 3-7 6 0 4 3 7 7 7l152 0c4 0 7-3 7-7 0-3-3-6-7-6z m-18-44c0-3-3-6-7-6l-102 0c-4 0-7 3-7 6 0 4 3 7 7 7l102 0c4 0 7-3 7-7z"/>
</font>
</defs>
</svg>
